<?xml version="1.0" encoding="UTF-8"?>
<svg xmlns="http://www.w3.org/2000/svg" xmlns:xlink="http://www.w3.org/1999/xlink" width="32pt" height="32pt" viewBox="0 0 32 32" version="1.1">
<g id="surface1">
<path style=" stroke:none;fill-rule:nonzero;fill:rgb(100%,100%,100%);fill-opacity:1;" d="M 0 0 L 0 0.0117188 L 0.0117188 0 Z M 0 0 "/>
<path style=" stroke:none;fill-rule:nonzero;fill:rgb(100%,100%,100%);fill-opacity:1;" d="M 16.375 6.992188 L 11.617188 6.992188 L 11.617188 15.742188 L 16.375 15.742188 C 20.167969 15.742188 21.078125 14.953125 21.078125 11.628906 L 21.078125 11.089844 C 21.058594 7.78125 20.148438 6.992188 16.375 6.992188 Z M 16.375 6.992188 "/>
<path style=" stroke:none;fill-rule:nonzero;fill:rgb(100%,100%,100%);fill-opacity:1;" d="M 0 0 L 0 32 L 20.507812 32 L 32.011719 20.492188 L 32.011719 0 Z M 23.964844 11.628906 C 23.964844 16.8125 22.007812 18.269531 16.355469 18.269531 L 11.617188 18.269531 L 11.617188 26.734375 C 11.636719 26.945312 11.566406 27.160156 11.421875 27.316406 C 11.277344 27.472656 11.070312 27.5625 10.855469 27.558594 C 10.191406 27.558594 8.777344 27.371094 8.777344 26.992188 L 8.777344 5.28125 C 8.777344 4.589844 9.121094 4.457031 9.5625 4.457031 L 16.375 4.457031 C 22.128906 4.457031 23.980469 6.03125 23.980469 11.09375 Z M 23.964844 11.628906 "/>
</g>
</svg>
