<?xml version="1.0" encoding="UTF-8"?>
<svg id="Layer_1" data-name="Layer 1" xmlns="http://www.w3.org/2000/svg" version="1.1" viewBox="0 0 377 71.3">
  <defs>
    <style>
      .cls-1 {
        fill: #dd3a03;
      }

      .cls-1, .cls-2 {
        stroke-width: 0px;
      }

      .cls-2 {
        fill: #fff;
      }
    </style>
  </defs>
  <g>
    <rect class="cls-2" x="14" y="10.6" width="40.6" height="49.5"/>
    <path class="cls-1" d="M69.3.9H4.9c-1.9,0-3.5,1.6-3.5,3.5v64.4c0,1.9,1.6,3.5,3.5,3.5h37.5l30.5-30.5V4.4c0-1.9-1.6-3.5-3.5-3.5ZM49.9,41.1c-3.1,2.8-7.8,4.2-14.2,4.2h-4.3v13.7c0,.6-.4,1-1,1h-9.8c-.6,0-1-.4-1-1V14.3c0-.6.4-1,1-1h14.9c6.7,0,11.5,1.4,14.5,4.1,3,2.8,4.4,6.7,4.4,12s-1.6,8.9-4.7,11.7Z"/>
    <path class="cls-1" d="M41,24.7c-1.2-.9-3-1.4-5.5-1.4h-4.1v12h4.1c2.3,0,4.1-.4,5.4-1.4,1.3-.9,1.9-2.4,1.9-4.6s-.6-3.7-1.8-4.7Z"/>
  </g>
  <g>
    <path class="cls-2" d="M96.8,59.2c-.6,0-.9-.3-.9-.9V13.5c0-.6.3-.9.9-.9h14.1c6.5,0,11.2,1.3,14.1,4,2.9,2.7,4.4,6.5,4.4,11.7s-1.5,8.8-4.6,11.5c-3.1,2.7-7.7,4.1-13.8,4.1h-4.9v14.5c0,.6-.3.9-.9.9h-8.3ZM106,35.2h4.8c2.8,0,4.9-.5,6.3-1.6,1.4-1.1,2.1-2.8,2.1-5.2s-.7-4.3-2.1-5.4c-1.4-1.1-3.5-1.6-6.3-1.6h-4.8v13.9Z"/>
    <path class="cls-2" d="M134.4,59.2c-.6,0-.9-.3-.9-.9v-25.3c0-1.5,0-2.9-.1-4.2,0-1.3-.2-2.6-.3-3.8,0-.7.2-1,.9-1h7c.5,0,.9.3,1,.8.2.8.3,1.7.4,2.8,0,1,.2,2,.2,2.9l.7,4.3v23.5c0,.6-.3.9-.9.9h-8ZM142.7,38.7l-.6-8.3c.9-1.4,2-2.6,3.3-3.7,1.2-1.1,2.5-2,3.7-2.6,1.3-.6,2.4-1,3.5-1s1.4,0,1.9.3c.5.1.7.5.8,1,0,1.2,0,2.6,0,4.1,0,1.5-.1,2.8-.2,4.1,0,.7-.5,1-1.1.9-.3,0-.6-.2-1.1-.2-.4,0-.8,0-1.2,0-1,0-2,.2-3.1.6-1,.4-2.1,1-3.1,1.8-1,.8-2,1.8-2.8,3Z"/>
    <path class="cls-2" d="M173.8,60.1c-5.5,0-9.6-1.2-12.2-3.5s-4-5.8-4-10.4v-8.2c0-4.8,1.3-8.5,4-11,2.6-2.5,6.7-3.8,12.1-3.8s9.2,1.2,11.9,3.6,4,6,4,10.7v5.6c0,.6-.3.9-.9.9h-21.2v2.1c0,2.2.5,3.8,1.5,4.9,1,1.1,2.6,1.6,4.8,1.6s3.1-.3,4.1-.8,1.5-1.4,1.5-2.5.3-.9.9-.9h7.8c.6,0,.9.3.9.9,0,3.6-1.1,6.3-3.6,8.1-2.5,1.8-6.3,2.7-11.5,2.7ZM167.5,38h12.5v-.4c0-2.4-.5-4.1-1.5-5.2-1-1.1-2.5-1.6-4.6-1.6s-3.8.6-4.8,1.7c-1,1.1-1.5,2.9-1.5,5.2v.3Z"/>
    <path class="cls-2" d="M206.7,60.1c-5,0-8.6-.9-10.9-2.8-2.3-1.9-3.3-4.7-3-8.7,0-.6.4-.9.9-.9h7.5c.6,0,.9.3.9.9,0,1.5.4,2.6,1.1,3.3.7.7,1.9,1.1,3.5,1.1s2.9-.3,3.7-.8c.8-.5,1.2-1.3,1.2-2.4s-.3-1.6-.9-2.1c-.6-.5-1.5-1.1-2.8-1.7l-8.2-3.5c-2.4-1-4.1-2.2-5.1-3.7-1-1.4-1.6-3.3-1.6-5.7,0-3.4,1.1-5.9,3.3-7.5,2.2-1.7,5.6-2.5,10.3-2.5s8.3.9,10.6,2.6c2.3,1.7,3.5,4.3,3.5,7.7s-.3.9-.9.9h-7.5c-.6,0-.9-.4-.9-1.1s-.4-1.7-1.1-2.2c-.7-.5-1.8-.7-3.2-.7s-2.5.2-3.1.7c-.7.5-1,1.2-1,2.2s.2,1.3.7,1.7c.5.4,1.4.9,2.7,1.5l8.1,3.4c2.5,1,4.3,2.2,5.4,3.7,1.1,1.5,1.7,3.4,1.7,5.8,0,3.6-1.3,6.2-3.8,8-2.5,1.8-6.2,2.7-11,2.7Z"/>
    <path class="cls-2" d="M238.5,60.1c-5,0-8.6-.9-10.9-2.8-2.3-1.9-3.3-4.7-3-8.7,0-.6.4-.9.9-.9h7.5c.6,0,.9.3.9.9,0,1.5.4,2.6,1.1,3.3.7.7,1.9,1.1,3.5,1.1s2.9-.3,3.7-.8c.8-.5,1.2-1.3,1.2-2.4s-.3-1.6-.9-2.1c-.6-.5-1.5-1.1-2.8-1.7l-8.2-3.5c-2.4-1-4.1-2.2-5.1-3.7-1-1.4-1.6-3.3-1.6-5.7,0-3.4,1.1-5.9,3.3-7.5,2.2-1.7,5.6-2.5,10.3-2.5s8.3.9,10.6,2.6c2.3,1.7,3.5,4.3,3.5,7.7s-.3.9-.9.9h-7.5c-.6,0-.9-.4-.9-1.1s-.4-1.7-1.1-2.2c-.7-.5-1.8-.7-3.2-.7s-2.5.2-3.1.7c-.7.5-1,1.2-1,2.2s.2,1.3.7,1.7c.5.4,1.4.9,2.7,1.5l8.1,3.4c2.5,1,4.3,2.2,5.4,3.7,1.1,1.5,1.7,3.4,1.7,5.8,0,3.6-1.3,6.2-3.8,8-2.5,1.8-6.2,2.7-11,2.7Z"/>
    <path class="cls-2" d="M266,60.1c-2.8,0-5.1-.9-6.6-2.6s-2.3-4.2-2.3-7.4.5-4.5,1.4-6c.9-1.5,2.5-2.8,4.6-3.6,2.2-.9,5-1.5,8.6-1.7l6.6-.6v5.4c0,0-5.3.5-5.3.5-2.4.2-4.1.7-5,1.5-.9.7-1.4,1.9-1.4,3.5s.3,2.2.8,2.8c.5.6,1.3.9,2.3.9s2.7-.4,4-1.2c1.3-.8,2.9-2.2,4.8-4.3l.4,5.9c-1.3,1.4-2.6,2.6-4,3.7-1.3,1.1-2.7,1.9-4.1,2.5-1.4.6-3.1.9-4.9.9ZM279.6,59.2c-.3,0-.5,0-.6-.2-.1-.2-.3-.4-.4-.7,0-.5-.2-1.3-.4-2.4s-.3-2.1-.4-3.2l-.7-3v-14.3c0-1.8-.3-3.1-1-3.8-.7-.7-1.9-1.1-3.7-1.1-3.2,0-4.8,1.2-4.6,3.6,0,.6-.3.9-.9.9h-7.5c-.6,0-.9-.4-1-1.1-.3-3.5.8-6.1,3.3-8,2.5-1.9,6.2-2.8,11.1-2.8s8.6,1,10.9,3c2.3,2,3.4,5.2,3.4,9.6v14.4c0,1.5,0,2.9.1,4.2,0,1.3.2,2.6.3,3.8,0,.7-.2,1-.9,1h-7Z"/>
    <path class="cls-2" d="M308.1,60.1c-1.9,0-3.7-.1-5.4-.3-1.7-.2-3.3-.5-5-.7-1.7-.3-3.5-.5-5.4-.6V11.6c0-.6.3-.9.9-.9h8c.6,0,.9.3.9.9v39.9c.9.1,1.7.3,2.6.4.9.1,1.7.2,2.5.2,2.2,0,3.8-.6,4.8-1.8,1-1.2,1.6-3,1.6-5.4v-7.3c0-2-.4-3.5-1.1-4.4-.7-.9-1.8-1.4-3.3-1.4s-2.4.3-3.7,1c-1.3.7-2.9,1.8-4.7,3.3l.2-7.4c2-1.9,4-3.2,6-4.1,2-.9,4-1.4,6.1-1.4,3.5,0,6,1,7.8,3,1.7,2,2.6,5.1,2.6,9.3v10.2c0,4.9-1.3,8.5-3.8,10.9-2.5,2.4-6.4,3.6-11.7,3.6Z"/>
    <path class="cls-2" d="M328.9,59.2c-.6,0-.9-.3-.9-.9V11.6c0-.6.3-.9.9-.9h8c.6,0,.9.3.9.9v46.8c0,.6-.3.9-.9.9h-8Z"/>
    <path class="cls-2" d="M358.3,60.1c-5.5,0-9.6-1.2-12.2-3.5s-4-5.8-4-10.4v-8.2c0-4.8,1.3-8.5,4-11,2.6-2.5,6.7-3.8,12.1-3.8s9.2,1.2,11.9,3.6,4,6,4,10.7v5.6c0,.6-.3.9-.9.9h-21.2v2.1c0,2.2.5,3.8,1.5,4.9,1,1.1,2.6,1.6,4.8,1.6s3.1-.3,4.1-.8,1.5-1.4,1.5-2.5.3-.9.9-.9h7.8c.6,0,.9.3.9.9,0,3.6-1.1,6.3-3.6,8.1-2.5,1.8-6.3,2.7-11.5,2.7ZM352,38h12.5v-.4c0-2.4-.5-4.1-1.5-5.2-1-1.1-2.5-1.6-4.6-1.6s-3.8.6-4.8,1.7c-1,1.1-1.5,2.9-1.5,5.2v.3Z"/>
  </g>
</svg>