<?xml version="1.0" encoding="UTF-8"?>
<svg xmlns="http://www.w3.org/2000/svg" xmlns:xlink="http://www.w3.org/1999/xlink" width="128pt" height="128pt" viewBox="0 0 128 128" version="1.1">
<g id="surface1">
<path style=" stroke:none;fill-rule:nonzero;fill:rgb(100%,100%,100%);fill-opacity:1;" d="M 0 0 L 0 0.0546875 L 0.0546875 0 Z M 0 0 "/>
<path style=" stroke:none;fill-rule:nonzero;fill:rgb(100%,100%,100%);fill-opacity:1;" d="M 65.496094 27.96875 L 46.464844 27.96875 L 46.464844 62.964844 L 65.496094 62.964844 C 80.667969 62.964844 84.3125 59.8125 84.3125 46.519531 L 84.3125 44.359375 C 84.242188 31.121094 80.59375 27.96875 65.496094 27.96875 Z M 65.496094 27.96875 "/>
<path style=" stroke:none;fill-rule:nonzero;fill:rgb(100%,100%,100%);fill-opacity:1;" d="M 0 0 L 0 128 L 82.027344 128 L 128.054688 81.976562 L 128.054688 0 Z M 95.855469 46.519531 C 95.855469 67.25 88.03125 73.070312 65.425781 73.070312 L 46.464844 73.070312 L 46.464844 106.933594 C 46.554688 107.789062 46.269531 108.636719 45.6875 109.269531 C 45.105469 109.898438 44.28125 110.246094 43.421875 110.226562 C 40.765625 110.226562 35.101562 109.484375 35.101562 107.960938 L 35.101562 21.117188 C 35.101562 18.355469 36.484375 17.824219 38.253906 17.824219 L 65.496094 17.824219 C 88.507812 17.824219 95.925781 24.128906 95.925781 44.378906 Z M 95.855469 46.519531 "/>
</g>
</svg>
