<?xml version="1.0" encoding="UTF-8"?>
<svg xmlns="http://www.w3.org/2000/svg" xmlns:xlink="http://www.w3.org/1999/xlink" width="16pt" height="16pt" viewBox="0 0 16 16" version="1.1">
<g id="surface1">
<path style=" stroke:none;fill-rule:nonzero;fill:rgb(100%,100%,100%);fill-opacity:1;" d="M 0 0 L 0 0.0078125 L 0.0078125 0 Z M 0 0 "/>
<path style=" stroke:none;fill-rule:nonzero;fill:rgb(100%,100%,100%);fill-opacity:1;" d="M 8.1875 3.496094 L 5.808594 3.496094 L 5.808594 7.871094 L 8.1875 7.871094 C 10.082031 7.871094 10.539062 7.476562 10.539062 5.816406 L 10.539062 5.546875 C 10.53125 3.890625 10.074219 3.496094 8.1875 3.496094 Z M 8.1875 3.496094 "/>
<path style=" stroke:none;fill-rule:nonzero;fill:rgb(100%,100%,100%);fill-opacity:1;" d="M 0 0 L 0 16 L 10.253906 16 L 16.007812 10.246094 L 16.007812 0 Z M 11.980469 5.816406 C 11.980469 8.40625 11.003906 9.132812 8.179688 9.132812 L 5.808594 9.132812 L 5.808594 13.367188 C 5.820312 13.472656 5.785156 13.578125 5.710938 13.660156 C 5.636719 13.738281 5.535156 13.78125 5.429688 13.777344 C 5.097656 13.777344 4.386719 13.683594 4.386719 13.496094 L 4.386719 2.640625 C 4.386719 2.292969 4.558594 2.226562 4.78125 2.226562 L 8.1875 2.226562 C 11.0625 2.226562 11.992188 3.015625 11.992188 5.546875 Z M 11.980469 5.816406 "/>
</g>
</svg>
