<?xml version="1.0" encoding="UTF-8"?>
<svg xmlns="http://www.w3.org/2000/svg" xmlns:xlink="http://www.w3.org/1999/xlink" width="12pt" height="12pt" viewBox="0 0 12 12" version="1.1">
<g id="surface1">
<path style=" stroke:none;fill-rule:nonzero;fill:rgb(100%,100%,100%);fill-opacity:1;" d="M 0 0 L 0 0.0078125 L 0.0078125 0 Z M 0 0 "/>
<path style=" stroke:none;fill-rule:nonzero;fill:rgb(100%,100%,100%);fill-opacity:1;" d="M 6.140625 2.621094 L 4.355469 2.621094 L 4.355469 5.902344 L 6.140625 5.902344 C 7.5625 5.902344 7.902344 5.605469 7.902344 4.363281 L 7.902344 4.160156 C 7.898438 2.917969 7.554688 2.621094 6.140625 2.621094 Z M 6.140625 2.621094 "/>
<path style=" stroke:none;fill-rule:nonzero;fill:rgb(100%,100%,100%);fill-opacity:1;" d="M 0 0 L 0 12 L 7.691406 12 L 12.003906 7.683594 L 12.003906 0 Z M 8.984375 4.363281 C 8.984375 6.304688 8.253906 6.847656 6.136719 6.847656 L 4.355469 6.847656 L 4.355469 10.027344 C 4.363281 10.105469 4.339844 10.183594 4.285156 10.246094 C 4.226562 10.304688 4.152344 10.335938 4.074219 10.332031 C 3.824219 10.332031 3.289062 10.261719 3.289062 10.121094 L 3.289062 1.980469 C 3.289062 1.71875 3.417969 1.667969 3.585938 1.667969 L 6.140625 1.667969 C 8.296875 1.667969 8.996094 2.261719 8.996094 4.160156 Z M 8.984375 4.363281 "/>
</g>
</svg>
