<svg xmlns="http://www.w3.org/2000/svg" viewBox="0 0 494.88 74.99"><defs><style>.cls-1{fill:#2b334f;}.cls-2{fill:none;}.cls-3{fill:#2c344f;}</style></defs><g id="Layer_2" data-name="Layer 2"><g id="Layer_1-2" data-name="Layer 1"><g id="pressable-logo-primary"><g id="two-color-horizontal"><path class="cls-1" d="M110.61,5.61c0-2.16,1.08-2.56,2.46-2.56h21.16c17.91,0,23.71,4.92,23.71,20.67v1.67c0,16.14-6.1,20.66-23.71,20.66H119.47V72.43A2.33,2.33,0,0,1,117.1,75c-2.06,0-6.49-.59-6.49-1.77Zm8.86,5.31V38.18h14.76c11.81,0,14.66-2.46,14.66-12.79V23.72c0-10.34-2.85-12.8-14.66-12.8Z"/><path class="cls-1" d="M186.38,28.05c-5.9,0-11.42,2.16-11.42,2.95V72.63A2.12,2.12,0,0,1,172.6,75c-1.77,0-5.8-.39-5.8-1.58V27.55c0-3.34,8.07-6.88,19.19-6.88,2.36,0,9-.1,9,2.65,0,3.94-.88,5.51-2,5.51a33.06,33.06,0,0,0-6.69-.78"/><path class="cls-1" d="M222.1,75c-16.14,0-21.55-6.4-21.55-23.91V38.48c0-12.8,6.5-17.81,19.29-17.81h1.28c13.58,0,18.69,5.11,18.69,14.86v2.36c0,11.81-5,15.74-31.19,15.74,0,10.24,3.84,14.37,15.25,14.37,5.32,0,10.93-1.47,13.88-1.47,1,0,1.67.59,1.67,4.92,0,1.08-.39,1.47-1.47,1.77A72.52,72.52,0,0,1,222.1,75m9.65-39.56c0-5.51-3.45-8.37-11.42-8.37-6.89,0-11.71,2.07-11.71,11.22v9c20.08,0,23.13-1.68,23.13-9.84Z"/><path class="cls-1" d="M263.73,67.71c7.67,0,12.1-1.68,12.1-6.7,0-11.9-26-9.25-26-27.26,0-11,8.85-13.08,17.91-13.08a88,88,0,0,1,13.78.78c1.37.2,1.67,1,1.67,2.07,0,3.44-1.08,5.31-2.06,5.31A105.71,105.71,0,0,0,269.73,28C262.45,28,258,29.43,258,34,258,44.19,284.1,42,284.1,60.82c0,11.31-8.27,14.17-19,14.17a85.76,85.76,0,0,1-15.45-1.28c-1.18-.39-1.37-.79-1.37-1.58,0-4.52,1.67-5.41,2.36-5.41H251a88.74,88.74,0,0,0,12.7,1"/><path class="cls-1" d="M307.32,67.71c7.67,0,12.11-1.68,12.11-6.7,0-11.9-26-9.25-26-27.26,0-11,8.86-13.08,17.92-13.08a87.86,87.86,0,0,1,13.77.78c1.38.2,1.67,1,1.67,2.07,0,3.44-1.08,5.31-2.06,5.31A105.5,105.5,0,0,0,313.32,28c-7.28,0-11.71,1.48-11.71,6,0,10.24,26.08,8.07,26.08,26.87,0,11.31-8.26,14.17-19,14.17a85.68,85.68,0,0,1-15.45-1.28c-1.19-.39-1.38-.79-1.38-1.58,0-4.52,1.67-5.41,2.36-5.41h.39a89,89,0,0,0,12.7,1"/><path class="cls-1" d="M373.84,69.58c0,2.16-9.25,5.41-19.39,5.41-13.38,0-19.09-4.82-19.09-16.24,0-10.33,4-15.15,16.14-15.15a51.63,51.63,0,0,1,14.27,2.26V37.2c0-6.89-3.15-9.45-12.79-9.45A75.84,75.84,0,0,0,340.18,29c-1.77,0-2.06-4.23-2.06-4.92,0-1.18.29-1.57.88-1.77,2-.69,8.86-1.67,16-1.67,12.6,0,18.8,3.34,18.8,16.33Zm-8.07-17.32c-.69-.69-8-2.37-12.5-2.37-6.79,0-9.84,1.78-9.84,9.45,0,7,3.15,9.35,11.12,9.35,4,0,10.44-1.18,11.22-2.16Z"/><path class="cls-1" d="M392,25.19a29.57,29.57,0,0,1,15.55-4.52c12.8,0,14.67,8.85,14.67,18.1V57.18c0,9.74-2.86,17.81-18.9,17.81-5,0-12.6-.3-17.81-2.76-1.38-.59-1.87-1.47-1.87-3.34V1.58c0-1.19,4-1.58,6.1-1.58C391.26,0,392,1,392,2.85Zm0,41c0,.59,5.71,1.67,11.23,1.67C413.5,67.9,414,62.3,414,57.08V39c0-5.22-.49-10.92-8.37-10.92-6.29,0-13.38,3.14-13.58,4.62Z"/><path class="cls-1" d="M451.58,71.54c0,3.15-6.3,3.45-8.66,3.45-7.38,0-11.42-3.74-11.42-13.39V1.47c0-1.27,4.43-1.47,6-1.47a2.1,2.1,0,0,1,2.37,2.26V60.33c0,4.33.88,6.89,5.12,6.89a30.85,30.85,0,0,0,4.62-.6c1.08,0,2,3.45,2,4.92"/><path class="cls-1" d="M477.16,75c-16.14,0-21.55-6.4-21.55-23.91V38.48c0-12.8,6.5-17.81,19.29-17.81h1.28c13.58,0,18.7,5.11,18.7,14.86v2.36c0,11.81-5,15.74-31.2,15.74,0,10.24,3.84,14.37,15.26,14.37,5.31,0,10.92-1.47,13.87-1.47,1,0,1.67.59,1.67,4.92,0,1.08-.39,1.47-1.47,1.77A72.45,72.45,0,0,1,477.16,75m9.65-39.56c0-5.51-3.44-8.37-11.42-8.37-6.89,0-11.71,2.07-11.71,11.22v9c20.08,0,23.13-1.68,23.13-9.84Z"/></g><polygon class="cls-2" points="0 2.68 0 2.71 0.03 2.68 0 2.68"/><path class="cls-3" d="M37,18.48H26.25V38.25H37c8.57,0,10.63-1.78,10.63-9.29V27.74C47.59,20.26,45.53,18.48,37,18.48Z"/><path class="cls-3" d="M0,2.68l0,0V75H46.34l26-26V2.68ZM54.15,29c0,11.71-4.42,15-17.19,15H26.25V63.09A1.69,1.69,0,0,1,24.53,65c-1.5,0-4.7-.42-4.7-1.28V14.61c0-1.56.78-1.86,1.78-1.86H37c13,0,17.19,3.56,17.19,15Z"/></g></g></g></svg>