<svg xmlns="http://www.w3.org/2000/svg" viewBox="0 0 72.31 72.31"><defs><style>.cls-1{fill:#fff;}</style></defs><g id="Layer_2" data-name="Layer 2"><g id="Layer_1-2" data-name="Layer 1"><g id="pressable-icon-primary-reverse"><polygon class="cls-1" points="0 0 0 0.03 0.03 0 0 0"/><path class="cls-1" d="M37,15.8H26.25V35.57H37c8.57,0,10.63-1.78,10.63-9.29V25.06C47.59,17.58,45.53,15.8,37,15.8Z"/><path class="cls-1" d="M0,0,0,0V72.31H46.34l26-26V0ZM54.15,26.28c0,11.71-4.42,15-17.19,15H26.25V60.41a1.69,1.69,0,0,1-1.72,1.86c-1.5,0-4.7-.42-4.7-1.28V11.93c0-1.56.78-1.86,1.78-1.86H37c13,0,17.19,3.56,17.19,15Z"/></g></g></g></svg>